<svg xmlns="http://www.w3.org/2000/svg" xmlns:xlink="http://www.w3.org/1999/xlink" width="40" zoomAndPan="magnify" viewBox="0 0 30 30.000001" height="40" preserveAspectRatio="xMidYMid meet" version="1.0"><defs><clipPath id="f1bbe8cf7d"><path d="M 0.484375 0 L 29.515625 0 L 29.515625 29 L 0.484375 29 Z M 0.484375 0 " clip-rule="nonzero"/></clipPath><clipPath id="86510d13e0"><path d="M 5.566406 0 L 24.433594 0 C 25.78125 0 27.074219 0.535156 28.027344 1.488281 C 28.980469 2.441406 29.515625 3.734375 29.515625 5.082031 L 29.515625 23.953125 C 29.515625 25.300781 28.980469 26.589844 28.027344 27.542969 C 27.074219 28.496094 25.78125 29.03125 24.433594 29.03125 L 5.566406 29.03125 C 4.21875 29.03125 2.925781 28.496094 1.972656 27.542969 C 1.019531 26.589844 0.484375 25.300781 0.484375 23.953125 L 0.484375 5.082031 C 0.484375 3.734375 1.019531 2.441406 1.972656 1.488281 C 2.925781 0.535156 4.21875 0 5.566406 0 " clip-rule="nonzero"/></clipPath></defs><g clip-path="url(#f1bbe8cf7d)"><g clip-path="url(#86510d13e0)"><path fill="#198754" d="M 0.484375 0 L 29.472656 0 L 29.472656 28.988281 L 0.484375 28.988281 Z M 0.484375 0 " fill-opacity="1" fill-rule="nonzero"/></g></g><path fill="#ffffff" d="M 23.039062 5.40625 C 22.6875 5.414062 22.320312 5.523438 22.042969 5.679688 C 21.546875 5.957031 21.128906 6.820312 20.890625 7.390625 C 20.511719 7.175781 20.132812 7.058594 19.75 7.035156 C 19.363281 7.011719 19.027344 7.085938 18.734375 7.257812 L 22.257812 10.785156 C 22.433594 10.492188 22.507812 10.15625 22.484375 9.769531 C 22.460938 9.386719 22.339844 9.003906 22.125 8.625 C 22.695312 8.390625 23.558594 7.96875 23.835938 7.476562 C 24.132812 6.957031 24.261719 6.101562 23.835938 5.679688 C 23.636719 5.480469 23.347656 5.402344 23.039062 5.40625 Z M 18 7.53125 L 16.707031 8.824219 L 20.691406 12.808594 L 21.984375 11.519531 Z M 15.578125 9.222656 C 15.042969 9.210938 14.273438 9.460938 13.3125 10.425781 L 6.125 17.613281 C 5.984375 17.75 5.894531 17.996094 5.894531 18.253906 C 5.894531 18.511719 5.984375 18.757812 6.125 18.898438 L 10.617188 23.390625 C 10.757812 23.535156 11.003906 23.625 11.265625 23.625 C 11.523438 23.625 11.769531 23.535156 11.90625 23.390625 L 12.101562 23.191406 L 11.011719 22.101562 L 11.519531 21.59375 L 12.609375 22.683594 L 13.449219 21.847656 L 12.355469 20.753906 L 12.863281 20.246094 L 13.957031 21.339844 L 14.796875 20.5 L 12.804688 18.507812 L 13.3125 18 L 15.304688 19.992188 L 16.144531 19.152344 L 15.050781 18.0625 L 15.558594 17.550781 L 16.652344 18.644531 L 17.492188 17.808594 L 16.398438 16.710938 L 16.90625 16.203125 L 18 17.296875 L 18.839844 16.457031 L 16.84375 14.46875 L 17.355469 13.960938 L 19.339844 15.941406 C 20.75 14.386719 20.253906 13.382812 19.988281 13.117188 L 16.398438 9.527344 C 16.273438 9.402344 15.996094 9.234375 15.578125 9.222656 Z M 15.578125 9.222656 " fill-opacity="1" fill-rule="nonzero"/></svg>